<svg xmlns="http://www.w3.org/2000/svg" viewBox="0 0 100 100">
  <defs>
    <linearGradient id="bg" x1="12" y1="8" x2="88" y2="94" gradientUnits="userSpaceOnUse">
      <stop offset="0" stop-color="#0a1022" />
      <stop offset="1" stop-color="#151b35" />
    </linearGradient>
    <linearGradient id="frame" x1="24" y1="28" x2="76" y2="72" gradientUnits="userSpaceOnUse">
      <stop offset="0" stop-color="#6ef3df" />
      <stop offset="1" stop-color="#35b8f1" />
    </linearGradient>
  </defs>

  <rect width="100" height="100" rx="18" fill="url(#bg)" />

  <rect x="24" y="30" width="52" height="40" rx="8" fill="#0f1730" stroke="url(#frame)" stroke-width="5" />
  <circle cx="64" cy="42" r="5" fill="#ffe07a" />
  <path d="M31 62 44.5 49l9 8 7-5 8.5 10H31Z" fill="#ff6f5c" />
  <path d="M31 62 41.5 52.5 47 58l6.5-4.5L61 62H31Z" fill="#ff9c7c" />

  <rect x="47.5" y="21" width="5" height="8" rx="2" fill="#ffd4a2" />
  <circle cx="50" cy="18" r="3.5" fill="#ff6f5c" />

  <path d="M50 9.5a8.5 8.5 0 0 1 8.5 8.5" fill="none" stroke="#ff6f5c" stroke-width="3" stroke-linecap="round" opacity="0.95" />
  <path d="M50 6a12 12 0 0 1 12 12" fill="none" stroke="#ff8f79" stroke-width="2.4" stroke-linecap="round" opacity="0.75" />
  <path d="M50 2.5a15.5 15.5 0 0 1 15.5 15.5" fill="none" stroke="#ffb29f" stroke-width="2" stroke-linecap="round" opacity="0.5" />
</svg>
