<svg xmlns="http://www.w3.org/2000/svg" viewBox="0 0 100 100">
  <defs>
    <linearGradient id="bg" x1="12" y1="8" x2="88" y2="94" gradientUnits="userSpaceOnUse">
      <stop offset="0" stop-color="#0a1022" />
      <stop offset="1" stop-color="#151b35" />
    </linearGradient>
    <linearGradient id="frame" x1="24" y1="28" x2="76" y2="72" gradientUnits="userSpaceOnUse">
      <stop offset="0" stop-color="#6ef3df" />
      <stop offset="1" stop-color="#35b8f1" />
    </linearGradient>
  </defs>

  <rect width="100" height="100" rx="18" fill="url(#bg)" />

  <rect x="24" y="30" width="52" height="40" rx="8" fill="#170907" stroke="url(#frame)" stroke-width="5" />

  <!-- Concert stage interior -->
  <rect x="30" y="38" width="40" height="22" rx="4" fill="#2a1312" />
  <path d="M30 58h40v4H30Z" fill="#46211d" />

  <!-- Stage light beams -->
  <path d="M37 38 33 47h8Z" fill="#ffd166" opacity="0.45" />
  <path d="M63 38 59 47h8Z" fill="#2dd4bf" opacity="0.45" />

  <!-- Speaker stacks -->
  <rect x="32" y="42" width="5" height="16" rx="1.2" fill="#2dd4bf" />
  <circle cx="34.5" cy="47" r="1.1" fill="#170907" />
  <circle cx="34.5" cy="53" r="1.4" fill="#170907" />
  <rect x="63" y="42" width="5" height="16" rx="1.2" fill="#2dd4bf" />
  <circle cx="65.5" cy="47" r="1.1" fill="#170907" />
  <circle cx="65.5" cy="53" r="1.4" fill="#170907" />

  <!-- Microphone and stand -->
  <circle cx="50" cy="43" r="3.4" fill="#ff8a4a" />
  <rect x="49" y="45.5" width="2" height="9.5" rx="1" fill="#ffd166" />
  <path d="M47 57h6" stroke="#ffd166" stroke-width="1.4" stroke-linecap="round" />

  <!-- Crowd silhouettes -->
  <circle cx="42" cy="62" r="2.2" fill="#d06c3c" />
  <circle cx="47" cy="63" r="2" fill="#ff9f50" />
  <circle cx="53" cy="63" r="2" fill="#ff9f50" />
  <circle cx="58" cy="62" r="2.2" fill="#d06c3c" />

  <rect x="47.5" y="21" width="5" height="8" rx="2" fill="#ffd4a2" />
  <circle cx="50" cy="18" r="3.5" fill="#ff6f5c" />

  <path d="M50 9.5a8.5 8.5 0 0 1 8.5 8.5" fill="none" stroke="#ff6f5c" stroke-width="3" stroke-linecap="round" opacity="0.95" />
  <path d="M50 6a12 12 0 0 1 12 12" fill="none" stroke="#ff8f79" stroke-width="2.4" stroke-linecap="round" opacity="0.75" />
  <path d="M50 2.5a15.5 15.5 0 0 1 15.5 15.5" fill="none" stroke="#ffb29f" stroke-width="2" stroke-linecap="round" opacity="0.5" />
</svg>
